<svg width="17" height="16" viewBox="0 0 17 16" fill="none" xmlns="http://www.w3.org/2000/svg">
<path d="M5.68383 7.3369C6.74607 6.27466 8.59866 6.27466 9.66091 7.3369L10.3238 7.99974L11.6494 6.67405L10.9866 6.0112C10.1025 5.12616 8.92493 4.6377 7.67237 4.6377C6.4198 4.6377 5.24224 5.12616 4.35813 6.0112L2.36866 7.99974C1.49139 8.87984 0.998779 10.0718 0.998779 11.3144C0.998779 12.5571 1.49139 13.7491 2.36866 14.6291C2.80356 15.0647 3.32024 15.41 3.889 15.6452C4.45777 15.8804 5.0674 16.001 5.68289 15.9998C6.29854 16.0011 6.90837 15.8807 7.47731 15.6455C8.04625 15.4102 8.56308 15.0648 8.99806 14.6291L9.66091 13.9663L8.33521 12.6406L7.67237 13.3035C7.14403 13.8294 6.42887 14.1247 5.68336 14.1247C4.93785 14.1247 4.22269 13.8294 3.69435 13.3035C3.16792 12.7754 2.87231 12.0601 2.87231 11.3144C2.87231 10.5688 3.16792 9.85353 3.69435 9.32544L5.68383 7.3369Z" fill="#9DA2B2"/>
<path d="M8.99807 1.37065L8.33522 2.0335L9.66091 3.35919L10.3238 2.69634C10.8521 2.17037 11.5673 1.87508 12.3128 1.87508C13.0583 1.87508 13.7734 2.17037 14.3018 2.69634C14.8282 3.22444 15.1238 3.93969 15.1238 4.68535C15.1238 5.43102 14.8282 6.14627 14.3018 6.67436L12.3123 8.6629C11.2501 9.72514 9.39746 9.72514 8.33522 8.6629L7.67237 8.00005L6.34668 9.32575L7.00953 9.98859C7.89363 10.8736 9.07119 11.3621 10.3238 11.3621C11.5763 11.3621 12.7539 10.8736 13.638 9.98859L15.6275 8.00005C16.5047 7.11996 16.9973 5.928 16.9973 4.68535C16.9973 3.44271 16.5047 2.25074 15.6275 1.37065C14.7476 0.492924 13.5556 0 12.3128 0C11.07 0 9.87792 0.492924 8.99807 1.37065Z" fill="#9DA2B2"/>
</svg>
