<svg width="20" height="18" viewBox="0 0 20 18" fill="none" xmlns="http://www.w3.org/2000/svg">
<path fill-rule="evenodd" clip-rule="evenodd" d="M17 2.14286H3.28571C2.98261 2.14286 2.69192 2.26327 2.47759 2.47759C2.26327 2.69192 2.14286 2.98261 2.14286 3.28571V14.7143C2.14286 15.0174 2.26327 15.3081 2.47759 15.5224C2.69192 15.7367 2.98261 15.8571 3.28571 15.8571H17C17.3031 15.8571 17.5938 15.7367 17.8081 15.5224C18.0224 15.3081 18.1429 15.0174 18.1429 14.7143V3.28571C18.1429 2.98261 18.0224 2.69192 17.8081 2.47759C17.5938 2.26327 17.3031 2.14286 17 2.14286ZM3.28571 1C2.67951 1 2.09812 1.24082 1.66947 1.66947C1.24082 2.09812 1 2.67951 1 3.28571V14.7143C1 15.3205 1.24082 15.9019 1.66947 16.3305C2.09812 16.7592 2.67951 17 3.28571 17H17C17.3002 17 17.5974 16.9409 17.8747 16.826C18.152 16.7111 18.404 16.5428 18.6162 16.3305C18.8285 16.1183 18.9969 15.8663 19.1117 15.589C19.2266 15.3117 19.2857 15.0145 19.2857 14.7143V3.28571C19.2857 2.67951 19.0449 2.09812 18.6162 1.66947C18.1876 1.24082 17.6062 1 17 1H3.28571Z" fill="#9DA2B2" stroke="#9DA2B2"/>
<path d="M13.1668 8.59552C13.2517 8.51087 13.361 8.45507 13.4794 8.43599C13.5977 8.41692 13.7191 8.43554 13.8263 8.48923L18.1428 10.7144V15.8572H2.14282V13.5715L5.16682 10.8812C5.26023 10.7882 5.38295 10.7303 5.51418 10.7173C5.64541 10.7044 5.77706 10.7373 5.88682 10.8104L8.92682 12.8367L13.1668 8.59666V8.59552Z" fill="#9DA2B2"/>
<path fill-rule="evenodd" clip-rule="evenodd" d="M6.14275 7.85728C6.36788 7.85728 6.59079 7.81294 6.79878 7.72679C7.00677 7.64064 7.19575 7.51437 7.35494 7.35518C7.51412 7.19599 7.64039 7.00701 7.72655 6.79903C7.8127 6.59104 7.85704 6.36812 7.85704 6.143C7.85704 5.91787 7.8127 5.69495 7.72655 5.48697C7.64039 5.27898 7.51412 5.09 7.35494 4.93081C7.19575 4.77163 7.00677 4.64535 6.79878 4.5592C6.59079 4.47305 6.36788 4.42871 6.14275 4.42871C5.6881 4.42871 5.25206 4.60932 4.93057 4.93081C4.60908 5.2523 4.42847 5.68834 4.42847 6.143C4.42847 6.59765 4.60908 7.03369 4.93057 7.35518C5.25206 7.67667 5.6881 7.85728 6.14275 7.85728Z" fill="#9DA2B2"/>
</svg>
