<svg width="14" height="16" viewBox="0 0 14 16" fill="none" xmlns="http://www.w3.org/2000/svg">
<path d="M6.99962 16C7.53002 16 8.0387 15.7893 8.41375 15.4142C8.78881 15.0392 8.99951 14.5305 8.99951 14.0001H4.99973C4.99973 14.5305 5.21043 15.0392 5.58548 15.4142C5.96053 15.7893 6.46921 16 6.99962 16ZM7.99456 1.09981C8.00852 0.960776 7.99318 0.820356 7.94953 0.68761C7.90588 0.554865 7.8349 0.432741 7.74115 0.329115C7.64741 0.225489 7.53299 0.142662 7.40526 0.0859748C7.27754 0.0292879 7.13935 0 6.99962 0C6.85988 0 6.72169 0.0292879 6.59397 0.0859748C6.46625 0.142662 6.35183 0.225489 6.25808 0.329115C6.16433 0.432741 6.09335 0.554865 6.0497 0.68761C6.00606 0.820356 5.99072 0.960776 6.00467 1.09981C4.87445 1.3297 3.85841 1.94313 3.12859 2.83622C2.39878 3.72931 2.00004 4.84718 1.99989 6.00055C1.99989 7.09849 1.49992 12.0002 0 13.0002H13.9992C12.4993 12.0002 11.9993 7.09849 11.9993 6.00055C11.9993 3.58068 10.2794 1.56079 7.99456 1.09981V1.09981Z" fill="#9DA2B2"/>
</svg>
