<svg width="34" height="30" viewBox="0 0 34 30" fill="none" xmlns="http://www.w3.org/2000/svg">
<path fill-rule="evenodd" clip-rule="evenodd" d="M13.8 7.00006H20.2C22.8472 7.00006 25 9.26617 25 12.0527V17.9474C25 20.734 22.8472 23.0001 20.2 23.0001H9.8C9.58783 23.0001 9.38434 22.9113 9.23431 22.7534C9.08429 22.5955 9 22.3813 9 22.158V12.0527C9 9.26617 11.1528 7.00006 13.8 7.00006ZM16 15.0001C16 16.1046 15.1046 17.0001 14 17.0001C12.8954 17.0001 12 16.1046 12 15.0001C12 13.8955 12.8954 13.0001 14 13.0001C15.1046 13.0001 16 13.8955 16 15.0001ZM22 15.0001C22 16.1046 21.1046 17.0001 20 17.0001C18.8954 17.0001 18 16.1046 18 15.0001C18 13.8955 18.8954 13.0001 20 13.0001C21.1046 13.0001 22 13.8955 22 15.0001Z" fill="#9DA2B2"/>
</svg>
