<svg width="34" height="30" viewBox="0 0 34 30" fill="none" xmlns="http://www.w3.org/2000/svg">
<path d="M17 17C18.1046 17 19 16.1046 19 15C19 13.8954 18.1046 13 17 13C15.8954 13 15 13.8954 15 15C15 16.1046 15.8954 17 17 17Z" fill="#9DA2B2"/>
<path d="M24 17C25.1046 17 26 16.1046 26 15C26 13.8954 25.1046 13 24 13C22.8954 13 22 13.8954 22 15C22 16.1046 22.8954 17 24 17Z" fill="#9DA2B2"/>
<path d="M10 17C11.1046 17 12 16.1046 12 15C12 13.8954 11.1046 13 10 13C8.89543 13 8 13.8954 8 15C8 16.1046 8.89543 17 10 17Z" fill="#9DA2B2"/>
</svg>
