<svg width="20" height="21" viewBox="0 0 20 21" fill="none" xmlns="http://www.w3.org/2000/svg">
<path d="M13.9251 11.2475C14.4708 11.3327 15.1023 11.0633 15.2876 10.5488C15.4489 10.0999 15.1969 9.67224 15.0662 9.25685C14.9387 8.85585 14.8931 8.40904 14.9165 7.99152C14.9443 7.50477 15.0617 6.993 15.267 6.54512C15.277 6.52382 14.3529 6.73844 14.2939 6.764C13.7498 6.99992 13.2652 7.34874 13.016 7.88128C12.7328 8.48732 12.557 9.50289 12.8062 10.2644C12.9692 10.7618 13.3131 11.1511 13.9251 11.2475Z" fill="#9DA2B2"/>
<path d="M12.7211 11.9915C12.3951 12.0459 12.1169 12.1156 11.891 12.1918C11.4292 12.3483 11.1716 12.5273 11.1327 12.6295C11.1577 12.6822 11.2773 12.7691 11.4693 12.8638C11.6262 12.9405 11.8387 13.0199 12.1047 13.0939C12.5831 13.2265 13.2279 13.3341 14.0541 13.3341C15.9051 13.3341 16.8949 12.8015 16.9756 12.5896C16.8943 12.4181 15.9051 11.8856 14.0541 11.8856C13.5406 11.8856 13.1005 11.9282 12.7211 11.9915Z" fill="#9DA2B2"/>
<path d="M11.8699 9.95131C11.8733 9.88101 11.8916 9.81551 11.8916 9.74468C11.8916 8.27698 11.1722 6.98023 10.0695 6.11591C10.1269 6.25543 10.1625 6.40348 10.1625 6.56378C10.1625 7.91485 7.97708 8.53047 5.94581 8.53047C3.91454 8.53047 1.72916 7.91485 1.72916 6.56378C1.72916 6.40348 1.76421 6.25543 1.82208 6.11591C0.719372 6.98023 1.05215e-07 8.27698 1.05215e-07 9.74468C-0.000556254 12.3414 2.20541 14.4535 4.91766 14.4535H6.97285C6.97619 14.4535 6.97953 14.4524 6.98286 14.4524C7.53477 12.1704 9.45199 10.3901 11.8699 9.95131Z" fill="#9DA2B2"/>
<path d="M18.1779 12.1619C18.2352 12.3015 18.2709 12.45 18.2709 12.6098C18.2709 13.9603 16.0849 14.576 14.0542 14.576C13.0372 14.576 11.9807 14.421 11.1806 14.0972C10.9536 14.0056 10.755 13.8964 10.5759 13.7771C10.3834 13.6488 10.2331 13.5002 10.1113 13.3405C9.94828 13.1242 9.83756 12.8857 9.83756 12.6098C9.83756 12.4495 9.87261 12.3015 9.93047 12.1619C9.2417 12.7014 8.7126 13.4076 8.40883 14.2255C8.32315 14.4567 8.24582 14.6899 8.19853 14.936C8.15791 15.1469 8.14011 15.3647 8.1301 15.5841C8.12676 15.6544 8.1084 15.7199 8.1084 15.7912C8.1084 18.3874 10.3144 20.5 13.0261 20.5H15.0812C17.7941 20.5 20 18.3874 20 15.7912C20.0006 14.323 19.2812 13.0263 18.1779 12.1619Z" fill="#9DA2B2"/>
<path d="M4.48146 4.70945C4.61165 4.83992 4.78189 4.95176 4.9794 5.0359C5.49793 5.25744 6.18614 5.29472 6.7375 5.0359C6.91498 4.95282 7.07521 4.83513 7.21318 4.68655C7.27661 4.61785 7.33169 4.5385 7.38399 4.45489C7.48914 4.28554 7.57537 4.09276 7.62155 3.85684C7.65048 3.70879 7.66773 3.54849 7.66773 3.37169C7.66773 0.422443 4.3802 0.500195 4.3802 0.500195C4.3802 0.500195 5.40724 2.15588 4.3802 3.68216C4.3407 3.74074 4.32345 3.79666 4.29953 3.85364C4.20495 4.07625 4.20773 4.2882 4.30342 4.47406C4.34682 4.5582 4.40858 4.63649 4.48146 4.70945Z" fill="#9DA2B2"/>
<path d="M5.94525 7.28855C7.79737 7.28855 8.78602 6.75601 8.86669 6.54459C8.78546 6.37257 7.79625 5.84003 5.94525 5.84003C4.09424 5.84003 3.10448 6.37257 3.0238 6.58399C3.10448 6.75601 4.09313 7.28855 5.94525 7.28855Z" fill="#9DA2B2"/>
</svg>
