<svg width="20" height="21" viewBox="0 0 20 21" fill="none" xmlns="http://www.w3.org/2000/svg">
<path d="M16.001 18.5H18V20.5H10C4.477 20.5 0 16.023 0 10.5C0 4.977 4.477 0.5 10 0.5C15.523 0.5 20 4.977 20 10.5C20.0013 12.0526 19.6405 13.5841 18.9463 14.9728C18.2521 16.3615 17.2436 17.5692 16.001 18.5ZM10 8.5C10.5304 8.5 11.0391 8.28929 11.4142 7.91421C11.7893 7.53914 12 7.03043 12 6.5C12 5.96957 11.7893 5.46086 11.4142 5.08579C11.0391 4.71071 10.5304 4.5 10 4.5C9.46957 4.5 8.96086 4.71071 8.58579 5.08579C8.21071 5.46086 8 5.96957 8 6.5C8 7.03043 8.21071 7.53914 8.58579 7.91421C8.96086 8.28929 9.46957 8.5 10 8.5ZM6 12.5C6.53043 12.5 7.03914 12.2893 7.41421 11.9142C7.78929 11.5391 8 11.0304 8 10.5C8 9.96957 7.78929 9.46086 7.41421 9.08579C7.03914 8.71071 6.53043 8.5 6 8.5C5.46957 8.5 4.96086 8.71071 4.58579 9.08579C4.21071 9.46086 4 9.96957 4 10.5C4 11.0304 4.21071 11.5391 4.58579 11.9142C4.96086 12.2893 5.46957 12.5 6 12.5ZM14 12.5C14.5304 12.5 15.0391 12.2893 15.4142 11.9142C15.7893 11.5391 16 11.0304 16 10.5C16 9.96957 15.7893 9.46086 15.4142 9.08579C15.0391 8.71071 14.5304 8.5 14 8.5C13.4696 8.5 12.9609 8.71071 12.5858 9.08579C12.2107 9.46086 12 9.96957 12 10.5C12 11.0304 12.2107 11.5391 12.5858 11.9142C12.9609 12.2893 13.4696 12.5 14 12.5ZM10 16.5C10.5304 16.5 11.0391 16.2893 11.4142 15.9142C11.7893 15.5391 12 15.0304 12 14.5C12 13.9696 11.7893 13.4609 11.4142 13.0858C11.0391 12.7107 10.5304 12.5 10 12.5C9.46957 12.5 8.96086 12.7107 8.58579 13.0858C8.21071 13.4609 8 13.9696 8 14.5C8 15.0304 8.21071 15.5391 8.58579 15.9142C8.96086 16.2893 9.46957 16.5 10 16.5Z" fill="#9DA2B2"/>
</svg>
