<svg width="111" height="29" viewBox="0 0 111 29" fill="none" xmlns="http://www.w3.org/2000/svg">
<path d="M0 2.40056C0 1.07477 1.07477 0 2.40056 0H26.4062C27.732 0 28.8068 1.07477 28.8068 2.40056V26.4062C28.8068 27.732 27.732 28.8068 26.4062 28.8068H2.40056C1.07477 28.8068 0 27.732 0 26.4062V2.40056Z" fill="#2F3136"/>
<path d="M37.881 20.8049V8.80212H40.0415V20.8049H37.881Z" fill="#EEEEEE"/>
<path d="M49.4606 17.5722H43.9073C44.0353 18.0736 44.2914 18.4631 44.6755 18.7405C45.0702 19.0072 45.5557 19.1406 46.1318 19.1406C46.9106 19.1406 47.6468 18.8738 48.3403 18.3404L49.2365 19.8127C48.287 20.6022 47.2307 20.997 46.0678 20.997C44.8515 21.0183 43.8166 20.6236 42.963 19.8127C42.1202 18.9912 41.7094 18.0043 41.7308 16.852C41.7094 15.7104 42.1095 14.7288 42.931 13.9073C43.7526 13.0858 44.7341 12.6857 45.8757 12.707C46.964 12.707 47.8549 13.0591 48.5484 13.7633C49.2525 14.4675 49.6046 15.3423 49.6046 16.3879C49.6046 16.772 49.5566 17.1668 49.4606 17.5722ZM43.9073 16.0518H47.5081C47.4974 15.5717 47.3267 15.1876 46.996 14.8996C46.6759 14.6008 46.2758 14.4515 45.7957 14.4515C45.3369 14.4515 44.9368 14.5955 44.5954 14.8836C44.254 15.1716 44.0246 15.561 43.9073 16.0518Z" fill="#EEEEEE"/>
<path d="M61.1562 12.8831H63.4287L59.7479 20.997H59.0437L56.7712 16.3879L54.4826 20.997H53.7785L50.0976 12.8831H52.3701L54.2426 17.3961L56.4031 12.707H57.1232L59.3158 17.3001L61.1562 12.8831Z" fill="#EEEEEE"/>
<path d="M70.1486 8.80212H72.3091V20.8049H70.3246V19.8287C69.7805 20.6076 68.9323 20.997 67.78 20.997C66.6704 20.997 65.7529 20.6076 65.0274 19.8287C64.3018 19.0392 63.9391 18.047 63.9391 16.852C63.9391 15.6571 64.3018 14.6702 65.0274 13.8913C65.7529 13.1018 66.6704 12.707 67.78 12.707C68.7829 12.707 69.5724 13.0218 70.1486 13.6513V8.80212ZM69.6044 18.4524C69.9885 18.0683 70.1806 17.5348 70.1806 16.852C70.1806 16.1692 69.9885 15.6357 69.6044 15.2516C69.2203 14.8569 68.7456 14.6595 68.1801 14.6595C67.5933 14.6595 67.1025 14.8622 66.7077 15.2676C66.3237 15.6731 66.1316 16.1959 66.1316 16.836C66.1316 17.4868 66.3237 18.015 66.7077 18.4204C67.0918 18.8258 67.5826 19.0285 68.1801 19.0285C68.7562 19.0285 69.231 18.8365 69.6044 18.4524Z" fill="#EEEEEE"/>
<path d="M78.4894 16.836C78.4894 15.6837 78.9002 14.7075 79.7217 13.9073C80.5432 13.1071 81.5461 12.707 82.7304 12.707C84.2881 12.707 85.435 13.3579 86.1712 14.6595L84.6668 15.8278C84.1334 15.0596 83.4986 14.6755 82.7624 14.6755C82.1542 14.6755 81.6528 14.8836 81.258 15.2996C80.874 15.7051 80.6819 16.2172 80.6819 16.836C80.6819 17.4655 80.874 17.9883 81.258 18.4044C81.6528 18.8098 82.1542 19.0125 82.7624 19.0125C83.4986 19.0125 84.1334 18.6338 84.6668 17.8763L86.1712 19.0285C85.8191 19.6473 85.3443 20.1328 84.7469 20.4849C84.1601 20.8263 83.4879 20.997 82.7304 20.997C81.5674 21.0183 80.5645 20.6182 79.7217 19.7967C78.8788 18.9645 78.468 17.9776 78.4894 16.836Z" fill="#EEEEEE"/>
<path d="M95.0494 15.8918V20.8049H92.9049V16.1959C92.9049 15.7371 92.7662 15.369 92.4888 15.0916C92.2221 14.8035 91.87 14.6595 91.4326 14.6595C90.9951 14.6595 90.6324 14.8035 90.3443 15.0916C90.0669 15.369 89.9282 15.7371 89.9282 16.1959V20.8049H87.7677V8.80212H89.9282V13.5552C90.4937 12.9898 91.2192 12.707 92.1047 12.707C93.0009 12.707 93.7158 13.0004 94.2492 13.5872C94.7827 14.1634 95.0494 14.9316 95.0494 15.8918Z" fill="#EEEEEE"/>
<path d="M103.771 16.0998V20.8049H101.786V20.0368C101.168 20.6769 100.362 20.997 99.3698 20.997C98.5376 20.997 97.8708 20.7783 97.3693 20.3408C96.8785 19.9034 96.6332 19.3326 96.6332 18.6284C96.6332 17.9136 96.8999 17.3535 97.4333 16.948C97.9775 16.5319 98.7083 16.3239 99.6259 16.3239H101.61V15.9718C101.61 15.5237 101.482 15.1823 101.226 14.9476C100.981 14.7022 100.618 14.5795 100.138 14.5795C99.7432 14.5795 99.3858 14.6648 99.0657 14.8355C98.7456 15.0062 98.4042 15.2836 98.0415 15.6677L96.9212 14.3394C97.8388 13.2512 98.991 12.707 100.378 12.707C101.424 12.707 102.25 13.0058 102.859 13.6033C103.467 14.1901 103.771 15.0223 103.771 16.0998ZM101.61 17.8442V17.7482H99.9139C99.1777 17.7482 98.8097 18.015 98.8097 18.5484C98.8097 18.8151 98.911 19.0285 99.1137 19.1886C99.3271 19.3379 99.6045 19.4126 99.9459 19.4126C100.426 19.4126 100.821 19.2686 101.13 18.9805C101.45 18.6818 101.61 18.303 101.61 17.8442Z" fill="#EEEEEE"/>
<path d="M110.939 18.9965V20.8049C110.427 20.933 109.931 20.997 109.451 20.997C108.437 20.997 107.653 20.7463 107.098 20.2448C106.554 19.7434 106.282 19.0019 106.282 18.0203V14.7075H105.034V12.8831H106.282V10.8826H108.443V12.8831H110.683V14.7075H108.443V17.8282C108.443 18.2763 108.555 18.5964 108.779 18.7885C109.013 18.9698 109.392 19.0605 109.915 19.0605C110.096 19.0605 110.438 19.0392 110.939 18.9965Z" fill="#EEEEEE"/>
<path fill-rule="evenodd" clip-rule="evenodd" d="M4.00098 20.8049C4.00098 20.363 4.35923 20.0047 4.80116 20.0047H24.0057C24.4476 20.0047 24.8059 20.363 24.8059 20.8049C24.8059 21.2468 24.4476 21.6051 24.0057 21.6051H4.80116C4.35923 21.6051 4.00098 21.2468 4.00098 20.8049Z" fill="#EEEEEE"/>
</svg>
