<svg width="153" height="41" viewBox="0 0 153 41" fill="none" xmlns="http://www.w3.org/2000/svg">
<path d="M16 12.1667C16 11.2462 16.7462 10.5 17.6667 10.5H34.3333C35.2538 10.5 36 11.2462 36 12.1667V28.8333C36 29.7538 35.2538 30.5 34.3333 30.5H17.6667C16.7462 30.5 16 29.7538 16 28.8333V12.1667Z" fill="#2F3136"/>
<path fill-rule="evenodd" clip-rule="evenodd" d="M19 25C19 24.7239 19.2411 24.5 19.5385 24.5H32.4615C32.7589 24.5 33 24.7239 33 25C33 25.2761 32.7589 25.5 32.4615 25.5H19.5385C19.2411 25.5 19 25.2761 19 25Z" fill="#9DA2B2"/>
<path d="M55.542 27H53.4766V13.3242H55.542V27ZM62.749 27.1758C61.2373 27.1758 60.0537 26.7363 59.1982 25.8574C58.3486 24.9727 57.9238 23.7568 57.9238 22.21C57.9238 20.6221 58.3193 19.374 59.1104 18.4658C59.9014 17.5576 60.9883 17.1035 62.3711 17.1035C63.6543 17.1035 64.668 17.4932 65.4121 18.2725C66.1562 19.0518 66.5283 20.124 66.5283 21.4893V22.6055H60.0508C60.0801 23.5488 60.335 24.2754 60.8154 24.7852C61.2959 25.2891 61.9727 25.541 62.8457 25.541C63.4199 25.541 63.9531 25.4883 64.4453 25.3828C64.9434 25.2715 65.4766 25.0898 66.0449 24.8379V26.5166C65.541 26.7568 65.0312 26.9268 64.5156 27.0264C64 27.126 63.4111 27.1758 62.749 27.1758ZM62.3711 18.668C61.7148 18.668 61.1875 18.876 60.7891 19.292C60.3965 19.708 60.1621 20.3145 60.0859 21.1113H64.498C64.4863 20.3086 64.293 19.7021 63.918 19.292C63.543 18.876 63.0273 18.668 62.3711 18.668ZM76.8467 27L75.5898 22.4648C75.4375 21.9844 75.1621 20.8682 74.7637 19.1162H74.6846C74.3447 20.6982 74.0752 21.8203 73.876 22.4824L72.584 27H70.2988L67.5742 17.2793H69.6836L70.9229 22.0693C71.2041 23.2529 71.4033 24.2666 71.5205 25.1104H71.5732C71.6318 24.6826 71.7197 24.1934 71.8369 23.6426C71.96 23.0859 72.0654 22.6699 72.1533 22.3945L73.6299 17.2793H75.8975L77.3301 22.3945C77.418 22.6816 77.5264 23.1211 77.6553 23.7129C77.79 24.3047 77.8691 24.7646 77.8926 25.0928H77.9629C78.0508 24.3721 78.2559 23.3643 78.5781 22.0693L79.835 17.2793H81.9092L79.167 27H76.8467ZM86.8662 27.1758C85.6533 27.1758 84.707 26.7363 84.0273 25.8574C83.3477 24.9785 83.0078 23.7451 83.0078 22.1572C83.0078 20.5635 83.3506 19.3242 84.0361 18.4395C84.7275 17.5488 85.6826 17.1035 86.9014 17.1035C88.1787 17.1035 89.1514 17.5752 89.8193 18.5186H89.9248C89.8252 17.8213 89.7754 17.2705 89.7754 16.8662V13.3242H91.8496V27H90.2324L89.8721 25.7256H89.7754C89.1133 26.6924 88.1436 27.1758 86.8662 27.1758ZM87.4199 25.5059C88.2695 25.5059 88.8877 25.2686 89.2744 24.7939C89.6611 24.3135 89.8604 23.5371 89.8721 22.4648V22.1748C89.8721 20.9502 89.6729 20.0801 89.2744 19.5645C88.876 19.0488 88.252 18.791 87.4023 18.791C86.6758 18.791 86.1162 19.0869 85.7236 19.6787C85.3311 20.2646 85.1348 21.1025 85.1348 22.1924C85.1348 23.2705 85.3252 24.0938 85.7061 24.6621C86.0869 25.2246 86.6582 25.5059 87.4199 25.5059ZM94.4951 25.9014C94.4951 25.4736 94.6064 25.1455 94.8291 24.917C95.0518 24.6885 95.374 24.5742 95.7959 24.5742C96.2236 24.5742 96.5488 24.6943 96.7715 24.9346C96.9941 25.1689 97.1055 25.4912 97.1055 25.9014C97.1055 26.3174 96.9912 26.6484 96.7627 26.8945C96.54 27.1348 96.2178 27.2549 95.7959 27.2549C95.374 27.2549 95.0518 27.1348 94.8291 26.8945C94.6064 26.6543 94.4951 26.3232 94.4951 25.9014ZM103.68 27.1758C102.209 27.1758 101.09 26.748 100.322 25.8926C99.5605 25.0312 99.1797 23.7979 99.1797 22.1924C99.1797 20.5576 99.5781 19.3008 100.375 18.4219C101.178 17.543 102.335 17.1035 103.847 17.1035C104.872 17.1035 105.795 17.2939 106.615 17.6748L105.991 19.3359C105.118 18.9961 104.397 18.8262 103.829 18.8262C102.147 18.8262 101.307 19.9424 101.307 22.1748C101.307 23.2646 101.515 24.085 101.931 24.6357C102.353 25.1807 102.968 25.4531 103.776 25.4531C104.696 25.4531 105.566 25.2246 106.387 24.7676V26.5693C106.018 26.7861 105.622 26.9414 105.2 27.0352C104.784 27.1289 104.277 27.1758 103.68 27.1758ZM117.224 27H115.149V21.0234C115.149 20.2734 114.997 19.7139 114.692 19.3447C114.394 18.9756 113.916 18.791 113.26 18.791C112.393 18.791 111.754 19.0518 111.344 19.5732C110.939 20.0889 110.737 20.9561 110.737 22.1748V27H108.672V13.3242H110.737V16.7959C110.737 17.3525 110.702 17.9473 110.632 18.5801H110.764C111.045 18.1113 111.435 17.748 111.933 17.4902C112.437 17.2324 113.022 17.1035 113.69 17.1035C116.046 17.1035 117.224 18.29 117.224 20.6631V27ZM126.18 27L125.767 25.6465H125.696C125.228 26.2383 124.756 26.6426 124.281 26.8594C123.807 27.0703 123.197 27.1758 122.453 27.1758C121.498 27.1758 120.751 26.918 120.212 26.4023C119.679 25.8867 119.412 25.1572 119.412 24.2139C119.412 23.2119 119.784 22.4561 120.528 21.9463C121.272 21.4365 122.406 21.1582 123.93 21.1113L125.608 21.0586V20.54C125.608 19.9189 125.462 19.4561 125.169 19.1514C124.882 18.8408 124.434 18.6855 123.824 18.6855C123.326 18.6855 122.849 18.7588 122.392 18.9053C121.935 19.0518 121.495 19.2246 121.073 19.4238L120.405 17.9473C120.933 17.6719 121.51 17.4639 122.137 17.3232C122.764 17.1768 123.355 17.1035 123.912 17.1035C125.148 17.1035 126.08 17.373 126.707 17.9121C127.34 18.4512 127.656 19.2979 127.656 20.4521V27H126.18ZM123.104 25.5938C123.854 25.5938 124.454 25.3857 124.905 24.9697C125.362 24.5479 125.591 23.959 125.591 23.2031V22.3594L124.343 22.4121C123.37 22.4473 122.661 22.6113 122.216 22.9043C121.776 23.1914 121.557 23.6338 121.557 24.2314C121.557 24.665 121.686 25.002 121.943 25.2422C122.201 25.4766 122.588 25.5938 123.104 25.5938ZM134.16 25.5059C134.664 25.5059 135.168 25.4268 135.672 25.2686V26.8242C135.443 26.9238 135.147 27.0059 134.784 27.0703C134.427 27.1406 134.055 27.1758 133.668 27.1758C131.711 27.1758 130.732 26.1445 130.732 24.082V18.8438H129.405V17.9297L130.829 17.1738L131.532 15.1172H132.807V17.2793H135.575V18.8438H132.807V24.0469C132.807 24.5449 132.93 24.9141 133.176 25.1543C133.428 25.3887 133.756 25.5059 134.16 25.5059Z" fill="#EEEEEE"/>
</svg>
