<svg width="20" height="21" viewBox="0 0 20 21" fill="none" xmlns="http://www.w3.org/2000/svg">
<path d="M19.7526 8.98006L17.5171 8.3134C17.3626 7.77427 17.15 7.25346 16.8832 6.76007L17.9776 4.71341C18.0186 4.63616 18.0337 4.54774 18.0204 4.46127C18.0072 4.3748 17.9664 4.2949 17.9042 4.23342L16.3093 2.63342C16.2477 2.5712 16.1677 2.53047 16.0812 2.51726C15.9946 2.50405 15.9061 2.51907 15.8288 2.56009L13.7935 3.64675C13.2947 3.36719 12.7666 3.14361 12.2186 2.98009L11.5513 0.773434C11.5231 0.692112 11.4697 0.621834 11.399 0.572716C11.3282 0.523598 11.2437 0.498174 11.1576 0.500102H8.90203C8.81538 0.500505 8.73111 0.528525 8.6615 0.580084C8.59188 0.631643 8.54056 0.70405 8.51499 0.786767L7.84767 2.98676C7.29514 3.14941 6.76245 3.37301 6.25945 3.65342L4.25749 2.57343C4.18016 2.5324 4.09165 2.51738 4.0051 2.53059C3.91855 2.5438 3.83857 2.58454 3.77702 2.64676L2.15544 4.22675C2.09316 4.28823 2.05238 4.36813 2.03916 4.4546C2.02593 4.54107 2.04097 4.62949 2.08203 4.70675L3.16309 6.70674C2.88285 7.20713 2.65905 7.73703 2.49577 8.28673L0.286947 8.95339C0.204148 8.97894 0.13167 9.03021 0.0800604 9.09976C0.0284508 9.1693 0.000403443 9.25349 0 9.34006V11.5934C0.000403443 11.6799 0.0284508 11.7641 0.0800604 11.8337C0.13167 11.9032 0.204148 11.9545 0.286947 11.98L2.50912 12.6467C2.67418 13.1872 2.89795 13.7081 3.17644 14.2L2.08203 16.2934C2.04097 16.3706 2.02593 16.459 2.03916 16.5455C2.05238 16.632 2.09316 16.7119 2.15544 16.7734L3.75033 18.3667C3.81187 18.4289 3.89186 18.4696 3.97841 18.4828C4.06496 18.4961 4.15347 18.481 4.2308 18.44L6.29282 17.34C6.7806 17.603 7.29514 17.813 7.82765 17.9667L8.49497 20.2133C8.52054 20.2961 8.57186 20.3685 8.64148 20.42C8.71109 20.4716 8.79536 20.4996 8.88201 20.5H11.1376C11.2242 20.4996 11.3085 20.4716 11.3781 20.42C11.4477 20.3685 11.499 20.2961 11.5246 20.2133L12.1919 17.96C12.7199 17.8056 13.2299 17.5955 13.7134 17.3333L15.7888 18.44C15.8661 18.481 15.9546 18.4961 16.0412 18.4828C16.1277 18.4696 16.2077 18.4289 16.2692 18.3667L17.8641 16.7734C17.9264 16.7119 17.9672 16.632 17.9804 16.5455C17.9936 16.459 17.9786 16.3706 17.9375 16.2934L16.8298 14.2267C17.0949 13.7418 17.3075 13.23 17.4637 12.7L19.7126 12.0334C19.7954 12.0078 19.8679 11.9566 19.9195 11.887C19.9711 11.8175 19.9991 11.7333 19.9995 11.6467V9.37339C20.0035 9.29049 19.9819 9.20837 19.9378 9.13806C19.8937 9.06775 19.829 9.01262 19.7526 8.98006ZM10.0298 14.1667C9.30389 14.1667 8.59429 13.9517 7.99072 13.5488C7.38715 13.1459 6.91672 12.5732 6.63893 11.9032C6.36114 11.2332 6.28845 10.496 6.43007 9.78472C6.57169 9.07346 6.92125 8.42013 7.43454 7.90734C7.94783 7.39455 8.60181 7.04534 9.31377 6.90386C10.0257 6.76238 10.7637 6.83499 11.4343 7.11251C12.105 7.39003 12.6782 7.85999 13.0815 8.46297C13.4848 9.06595 13.7001 9.77486 13.7001 10.5001C13.7001 11.4725 13.3134 12.4051 12.6251 13.0928C11.9368 13.7804 11.0032 14.1667 10.0298 14.1667Z" fill="#9DA2B2"/>
</svg>
