<svg width="20" height="21" viewBox="0 0 20 21" fill="none" xmlns="http://www.w3.org/2000/svg">
<path d="M0.999738 12.4942H2.99974V19.4993C2.99974 19.7647 3.1051 20.0192 3.29263 20.2069C3.48017 20.3946 3.73452 20.5 3.99974 20.5H15.9997C16.265 20.5 16.5193 20.3946 16.7068 20.2069C16.8944 20.0192 16.9997 19.7647 16.9997 19.4993V12.4942H18.9997C19.193 12.4944 19.3821 12.4384 19.5442 12.333C19.7063 12.2277 19.8343 12.0775 19.9127 11.9008C19.9917 11.7241 20.0177 11.5283 19.9875 11.3371C19.9573 11.146 19.8723 10.9677 19.7427 10.824L10.7427 0.81673C10.3637 0.394423 9.63574 0.394423 9.25674 0.81673L0.256738 10.824C0.127429 10.9678 0.042526 11.1459 0.0123019 11.337C-0.0179222 11.528 0.00782824 11.7238 0.0864374 11.9005C0.165047 12.0772 0.293145 12.2273 0.455233 12.3327C0.617321 12.438 0.806451 12.4941 0.999738 12.4942ZM6.94874 12.178C6.97974 12.273 7.76174 14.4956 9.99974 14.4956C12.2687 14.4956 13.0417 12.207 13.0497 12.183L14.9497 12.8044C14.9007 12.9555 13.7027 16.4971 9.99974 16.4971C6.29674 16.4971 5.09874 12.9555 5.04974 12.8054L6.94874 12.178Z" fill="#9DA2B2"/>
</svg>
