<svg width="20" height="21" viewBox="0 0 20 21" fill="none" xmlns="http://www.w3.org/2000/svg">
<path d="M0 3.16667C0 2.45942 0.263392 1.78115 0.732232 1.28105C1.20107 0.780951 1.83696 0.5 2.5 0.5H11.25C11.913 0.5 12.5489 0.780951 13.0178 1.28105C13.4866 1.78115 13.75 2.45942 13.75 3.16667V8.5C13.75 9.20724 13.4866 9.88552 13.0178 10.3856C12.5489 10.8857 11.913 11.1667 11.25 11.1667H8.74999L5 15.1667V11.1667H2.5C1.83696 11.1667 1.20107 10.8857 0.732232 10.3856C0.263392 9.88552 0 9.20724 0 8.5V3.16667Z" fill="#9DA2B2"/>
<path d="M16.25 5.83331V8.49998C16.25 9.91447 15.7232 11.271 14.7855 12.2712C13.8479 13.2714 12.5761 13.8333 11.25 13.8333H9.78501L7.57751 16.1893C7.92751 16.388 8.32626 16.5 8.75001 16.5H11.25L15 20.5V16.5H17.5C18.163 16.5 18.7989 16.219 19.2678 15.7189C19.7366 15.2188 20 14.5406 20 13.8333V8.49998C20 7.79274 19.7366 7.11446 19.2678 6.61436C18.7989 6.11426 18.163 5.83331 17.5 5.83331H16.25Z" fill="#9DA2B2"/>
</svg>
